<svg id="Capa_1" data-name="Capa 1" xmlns="http://www.w3.org/2000/svg" xmlns:xlink="http://www.w3.org/1999/xlink" viewBox="0 0 512 512"><defs><style>.cls-1{fill:url(#Degradado_sin_nombre_13);}.cls-2{fill:url(#Degradado_sin_nombre_13-2);}.cls-3{fill:url(#Degradado_sin_nombre_13-3);}.cls-4{fill:url(#Degradado_sin_nombre_13-4);}.cls-5{fill:url(#Degradado_sin_nombre_13-5);}.cls-6{fill:url(#Degradado_sin_nombre_13-6);}</style><linearGradient id="Degradado_sin_nombre_13" x1="328.03" y1="429.07" x2="328.03" gradientUnits="userSpaceOnUse"><stop offset="0" stop-color="#f24405"/><stop offset="1" stop-color="#f2b988"/></linearGradient><linearGradient id="Degradado_sin_nombre_13-2" x1="211.86" y1="512" x2="211.86" y2="39.87" xlink:href="#Degradado_sin_nombre_13"/><linearGradient id="Degradado_sin_nombre_13-3" x1="256" y1="477" x2="256" y2="35" xlink:href="#Degradado_sin_nombre_13"/><linearGradient id="Degradado_sin_nombre_13-4" x1="261.42" y1="439.5" x2="261.42" y2="73.5" xlink:href="#Degradado_sin_nombre_13"/><linearGradient id="Degradado_sin_nombre_13-5" x1="270.87" y1="234.59" x2="270.87" y2="155.72" xlink:href="#Degradado_sin_nombre_13"/><linearGradient id="Degradado_sin_nombre_13-6" x1="281" y1="356.2" x2="281" y2="259.58" xlink:href="#Degradado_sin_nombre_13"/></defs><title>bitcoin-mod</title><path class="cls-1" d="M437,75A256.24,256.24,0,0,0,148.4,23.64a7.5,7.5,0,0,0,6.31,13.61A239.1,239.1,0,0,1,256,15c132.89,0,241,108.11,241,241a240.57,240.57,0,0,1-61.28,160.57,7.5,7.5,0,1,0,11.18,10A256,256,0,0,0,437,75Z"/><path class="cls-2" d="M411.38,440.23A241.13,241.13,0,0,1,256,497C123.11,497,15,388.89,15,256A240.36,240.36,0,0,1,125,53.66a7.5,7.5,0,0,0-8.17-12.59A256,256,0,1,0,421.05,451.69a7.5,7.5,0,1,0-9.67-11.46Z"/><path class="cls-3" d="M35,256A221,221,0,0,0,412.27,412.27,219.56,219.56,0,0,0,477,256c0-121.86-99.14-221-221-221S35,134.14,35,256ZM256,50c113.59,0,206,92.41,206,206A206,206,0,0,1,110.34,401.66,204.63,204.63,0,0,1,50,256C50,142.41,142.41,50,256,50Z"/><path class="cls-4" d="M173,341.72a27.5,27.5,0,0,0,0,55h21.5V417a22.5,22.5,0,0,0,45,0V396.73l13,0V416a22.5,22.5,0,0,0,45,0V395.6c44.65-4.26,79.84-42.19,79.84-87.8a88,88,0,0,0-33.36-69,78.44,78.44,0,0,0,13.06-41,7.5,7.5,0,1,0-15-.5,63.79,63.79,0,0,1-14.39,38.39,7.54,7.54,0,0,0,1.68,11A73.17,73.17,0,0,1,289.92,381a7.51,7.51,0,0,0-7.42,7.5V416a7.5,7.5,0,0,1-15,0V389.26a7.49,7.49,0,0,0-7.49-7.5l-28,0a7.54,7.54,0,0,0-7.51,7.5V417a7.5,7.5,0,0,1-15,0V389.22a7.5,7.5,0,0,0-7.5-7.5H173a12.5,12.5,0,0,1,0-25h19.16a7.5,7.5,0,0,0,7.5-7.5v-186a7.5,7.5,0,0,0-7.5-7.5H173a12.5,12.5,0,0,1,0-25h29a7.5,7.5,0,0,0,7.5-7.5V97a7.5,7.5,0,0,1,15,0v26.22a7.5,7.5,0,0,0,7.5,7.5h28a7.5,7.5,0,0,0,7.5-7.5V96a7.5,7.5,0,0,1,15,0v28.29a7.5,7.5,0,0,0,6.22,7.39,64.75,64.75,0,0,1,46.67,34.88,7.5,7.5,0,0,0,13.43-6.69,79.83,79.83,0,0,0-51.32-41.62V96a22.5,22.5,0,0,0-45,0v19.72h-13V97a22.5,22.5,0,0,0-45,0v18.72H173a27.5,27.5,0,0,0,0,55h11.66v171Z"/><path class="cls-5" d="M232.16,234.58h0l45.51-.06a39.4,39.4,0,1,0,0-78.8H232.16a7.5,7.5,0,0,0-7.5,7.5v63.86a7.54,7.54,0,0,0,7.5,7.5Zm7.5-63.86h38a24.4,24.4,0,1,1,0,48.8l-38,0Z"/><path class="cls-6" d="M289.13,341a7.57,7.57,0,1,0,0,15,48.22,48.22,0,0,0,0-96.44c-.51,0-50.27.06-57,.09a7.5,7.5,0,0,0-7.47,7.5V348.7a7.55,7.55,0,0,0,7.53,7.5l20.84-.08a7.5,7.5,0,0,0,0-15h0l-13.31.05V274.65l49.47-.07a33.22,33.22,0,0,1,0,66.44Z"/></svg>