<svg id="Capa_1" data-name="Capa 1" xmlns="http://www.w3.org/2000/svg" xmlns:xlink="http://www.w3.org/1999/xlink" viewBox="0 0 512 443.99"><defs><style>.cls-1{fill:url(#Degradado_sin_nombre_20);}.cls-2{fill:url(#Degradado_sin_nombre_20-2);}.cls-3{fill:url(#Degradado_sin_nombre_20-3);}.cls-4{fill:url(#Degradado_sin_nombre_20-4);}.cls-5{fill:url(#Degradado_sin_nombre_20-5);}.cls-6{fill:url(#Degradado_sin_nombre_20-6);}.cls-7{fill:url(#Degradado_sin_nombre_20-7);}.cls-8{fill:url(#Degradado_sin_nombre_20-8);}.cls-9{fill:url(#Degradado_sin_nombre_20-9);}.cls-10{fill:url(#Degradado_sin_nombre_20-10);}</style><linearGradient id="Degradado_sin_nombre_20" y1="256" x2="512" y2="256" gradientUnits="userSpaceOnUse"><stop offset="0" stop-color="#f24405"/><stop offset="1" stop-color="#f2b988"/></linearGradient><linearGradient id="Degradado_sin_nombre_20-2" x1="458.75" y1="294.71" x2="473.83" y2="294.71" xlink:href="#Degradado_sin_nombre_20"/><linearGradient id="Degradado_sin_nombre_20-3" x1="431.59" y1="294.71" x2="446.67" y2="294.71" xlink:href="#Degradado_sin_nombre_20"/><linearGradient id="Degradado_sin_nombre_20-4" x1="404.77" y1="294.71" x2="419.85" y2="294.71" xlink:href="#Degradado_sin_nombre_20"/><linearGradient id="Degradado_sin_nombre_20-5" x1="263.8" y1="327.03" x2="308.35" y2="327.03" xlink:href="#Degradado_sin_nombre_20"/><linearGradient id="Degradado_sin_nombre_20-6" x1="46.78" y1="440.95" x2="79.68" y2="440.95" xlink:href="#Degradado_sin_nombre_20"/><linearGradient id="Degradado_sin_nombre_20-7" x1="93.56" y1="440.95" x2="126.46" y2="440.95" xlink:href="#Degradado_sin_nombre_20"/><linearGradient id="Degradado_sin_nombre_20-8" x1="60.15" y1="281.1" x2="114.97" y2="281.1" xlink:href="#Degradado_sin_nombre_20"/><linearGradient id="Degradado_sin_nombre_20-9" x1="25.7" y1="107.3" x2="153.37" y2="107.3" xlink:href="#Degradado_sin_nombre_20"/><linearGradient id="Degradado_sin_nombre_20-10" x1="25.7" y1="161.72" x2="153.37" y2="161.72" xlink:href="#Degradado_sin_nombre_20"/></defs><title>gamingmod</title><path class="cls-1" d="M476.87,62.56h-276a7.54,7.54,0,1,0,0,15.08h276a20.07,20.07,0,0,1,20,20V279.84H468.69a7.55,7.55,0,0,0,0,15.09h28.22v49.88a20.06,20.06,0,0,1-20,20H179.07V294.93H439.14a7.55,7.55,0,0,0,0-15.09H179.07V54.28A20.3,20.3,0,0,0,158.8,34H20.27A20.31,20.31,0,0,0,0,54.28V457.72A20.3,20.3,0,0,0,20.27,478H158.8a20.3,20.3,0,0,0,20.27-20.27V379.94h57.65v52.41H223.79a23.26,23.26,0,0,0-23.23,23.24v14.86A7.53,7.53,0,0,0,208.1,478h156a7.54,7.54,0,0,0,7.55-7.54V455.59a23.27,23.27,0,0,0-23.24-23.24H335.43V413.12a7.55,7.55,0,1,0-15.09,0v19.23H251.81V379.94h68.53v4.26a7.55,7.55,0,0,0,15.09,0v-4.26H476.87A35.17,35.17,0,0,0,512,344.81V97.69A35.17,35.17,0,0,0,476.87,62.56ZM129.37,49.09l-6.68,7.75a8.79,8.79,0,0,1-6.67,3H62.35a8.76,8.76,0,0,1-6.78-3.19l-6.3-7.61ZM164,457.72a5.19,5.19,0,0,1-5.18,5.19H20.27a5.19,5.19,0,0,1-5.18-5.19v-5.56l44.39-50.77a16.85,16.85,0,0,0,3.82-14.33L55.13,345a7.55,7.55,0,0,0-14.8,3L48.51,390a1.68,1.68,0,0,1-.39,1.44l-33,37.78V277.5l14.3,17.88a1.66,1.66,0,0,1,.33.71L33.3,314a7.55,7.55,0,1,0,14.8-3l-3.58-17.91A17,17,0,0,0,41.17,286l-26.08-32.6V54.28a5.19,5.19,0,0,1,5.18-5.19h9.42L43.94,66.32A23.82,23.82,0,0,0,62.35,75H116a23.87,23.87,0,0,0,18.1-8.29l15.17-17.6h9.51A5.2,5.2,0,0,1,164,54.28V253.35L137.9,286a16.86,16.86,0,0,0-3.35,7.19l-18.78,93.92a16.89,16.89,0,0,0,3.81,14.33L164,452.16Zm0-28.48-33-37.78a1.68,1.68,0,0,1-.39-1.44h0l18.79-93.93a1.66,1.66,0,0,1,.33-.71L164,277.5V429.24Zm163.91,18.2h20.48a8.15,8.15,0,0,1,8.14,8.15v7.32H215.65v-7.32a8.15,8.15,0,0,1,8.14-8.15h104.1Z" transform="translate(0 -34)"/><circle class="cls-2" cx="466.29" cy="294.71" r="7.54"/><circle class="cls-3" cx="439.13" cy="294.71" r="7.54"/><circle class="cls-4" cx="412.31" cy="294.71" r="7.54"/><path class="cls-5" d="M286.08,304.75A22.28,22.28,0,1,0,308.35,327,22.31,22.31,0,0,0,286.08,304.75Zm0,29.47a7.19,7.19,0,1,1,7.19-7.19A7.19,7.19,0,0,1,286.08,334.22Z" transform="translate(0 -34)"/><path class="cls-6" d="M72.14,433.4H54.32a7.55,7.55,0,0,0,0,15.09H72.14a7.55,7.55,0,0,0,0-15.09Z" transform="translate(0 -34)"/><path class="cls-7" d="M118.91,433.4H101.1a7.55,7.55,0,0,0,0,15.09h17.81a7.55,7.55,0,1,0,0-15.09Z" transform="translate(0 -34)"/><path class="cls-8" d="M87.56,253.69A27.41,27.41,0,1,0,115,281.1,27.44,27.44,0,0,0,87.56,253.69Zm0,39.73A12.32,12.32,0,1,1,99.88,281.1,12.34,12.34,0,0,1,87.56,293.42Z" transform="translate(0 -34)"/><path class="cls-9" d="M140.26,86.72H38.81A13.12,13.12,0,0,0,25.7,99.83v14.94a13.12,13.12,0,0,0,13.11,13.11H140.26a13.12,13.12,0,0,0,13.11-13.1v-15A13.12,13.12,0,0,0,140.26,86.72Zm-2,26.08H40.78v-11h97.51Z" transform="translate(0 -34)"/><path class="cls-10" d="M140.26,141.14H38.81A13.12,13.12,0,0,0,25.7,154.25v14.94A13.12,13.12,0,0,0,38.81,182.3H140.26a13.12,13.12,0,0,0,13.11-13.11V154.25A13.12,13.12,0,0,0,140.26,141.14Zm-2,26.07H40.78v-11h97.51Z" transform="translate(0 -34)"/></svg>