<svg id="Capa_1" data-name="Capa 1" xmlns="http://www.w3.org/2000/svg" xmlns:xlink="http://www.w3.org/1999/xlink" viewBox="0 0 512 459.47"><defs><style>.cls-1{fill:url(#Degradado_sin_nombre_16);}.cls-2{fill:url(#Degradado_sin_nombre_16-2);}.cls-3{fill:url(#Degradado_sin_nombre_16-3);}.cls-4{fill:url(#Degradado_sin_nombre_16-4);}.cls-5{fill:url(#Degradado_sin_nombre_16-5);}.cls-6{fill:url(#Degradado_sin_nombre_16-6);}</style><linearGradient id="Degradado_sin_nombre_16" x1="256" y1="388.92" x2="256" y2="26.26" gradientUnits="userSpaceOnUse"><stop offset="0" stop-color="#f24405"/><stop offset="0.99" stop-color="#f2b988"/></linearGradient><linearGradient id="Degradado_sin_nombre_16-2" x1="400.45" y1="425.13" x2="400.45" y2="276.79" xlink:href="#Degradado_sin_nombre_16"/><linearGradient id="Degradado_sin_nombre_16-3" x1="111.55" y1="425.13" x2="111.55" y2="276.79" xlink:href="#Degradado_sin_nombre_16"/><linearGradient id="Degradado_sin_nombre_16-4" x1="256" y1="356.43" x2="256" y2="309.11" xlink:href="#Degradado_sin_nombre_16"/><linearGradient id="Degradado_sin_nombre_16-5" x1="256" y1="254.41" x2="256" y2="174.76" xlink:href="#Degradado_sin_nombre_16"/><linearGradient id="Degradado_sin_nombre_16-6" x1="256" y1="485.74" x2="256" y2="264.5" xlink:href="#Degradado_sin_nombre_16"/></defs><title>home-mod</title><path class="cls-1" d="M494.4,167.69h-4.89L443.69,44.32a27.82,27.82,0,0,0-26-18.06H94.28a27.82,27.82,0,0,0-26,18.06L22.49,167.69H17.6A17.62,17.62,0,0,0,0,185.29v14.14A17.62,17.62,0,0,0,17.6,217h2.6V381.42a7.5,7.5,0,0,0,15,0V217H153a24.51,24.51,0,0,0,17.45-7.22L256,124.21l85.59,85.6A24.51,24.51,0,0,0,359,217H476.8v19.89a7.5,7.5,0,1,0,15,0V217h2.6a17.62,17.62,0,0,0,17.6-17.6V185.29a17.62,17.62,0,0,0-17.6-17.6ZM82.37,49.54a12.77,12.77,0,0,1,11.91-8.28H417.72a12.77,12.77,0,0,1,11.91,8.28l43.88,118.15H369.26L273.45,71.88a24.67,24.67,0,0,0-34.9,0l-95.81,95.81H38.49ZM497,199.43a2.6,2.6,0,0,1-2.6,2.6H359a9.57,9.57,0,0,1-6.84-2.83l-90.9-90.89a7.48,7.48,0,0,0-10.6,0L159.8,199.2A9.57,9.57,0,0,1,153,202H17.6a2.6,2.6,0,0,1-2.6-2.6V185.29a2.6,2.6,0,0,1,2.6-2.6H145.85a7.47,7.47,0,0,0,5.3-2.2l98-98a9.68,9.68,0,0,1,13.68,0l98,98a7.49,7.49,0,0,0,5.3,2.2H494.4a2.59,2.59,0,0,1,2.6,2.6v14.14Z" transform="translate(0 -26.26)"/><path class="cls-2" d="M451,425.13a7.5,7.5,0,0,0,7.5-7.5V284.29a7.49,7.49,0,0,0-7.5-7.5H350a7.49,7.49,0,0,0-7.5,7.5V417.63a7.5,7.5,0,0,0,7.5,7.5Zm-7.5-47.33H408V342.29h35.51Zm-50.51,0h-35.5V342.29H393Zm50.51,32.33h-86V392.8h86Zm0-82.84H408V291.78h35.51ZM393,291.79v35.5h-35.5v-35.5Z" transform="translate(0 -26.26)"/><path class="cls-3" d="M162.05,425.13a7.5,7.5,0,0,0,7.5-7.5V284.29a7.49,7.49,0,0,0-7.5-7.5H61a7.49,7.49,0,0,0-7.5,7.5V417.63a7.5,7.5,0,0,0,7.5,7.5Zm-7.5-47.33h-35.5V342.29h35.5Zm-50.5,0H68.54V342.29h35.51Zm50.5,32.33h-86V392.8h86Zm0-82.84h-35.5V291.78h35.5Zm-50.5-35.5v35.5H68.54v-35.5Z" transform="translate(0 -26.26)"/><path class="cls-4" d="M280.24,309.11H231.76a7.5,7.5,0,0,0-7.5,7.5v32.32a7.49,7.49,0,0,0,7.5,7.5h48.48a7.49,7.49,0,0,0,7.5-7.5V316.61A7.5,7.5,0,0,0,280.24,309.11Zm-7.5,32.32H239.26V324.11h33.48Z" transform="translate(0 -26.26)"/><path class="cls-5" d="M295.83,214.58A39.83,39.83,0,1,0,256,254.41,39.87,39.87,0,0,0,295.83,214.58Zm-64.65,0A24.83,24.83,0,1,1,256,239.41a24.84,24.84,0,0,1-24.82-24.83Z" transform="translate(0 -26.26)"/><path class="cls-6" d="M504.5,436.39H491.8V272a7.5,7.5,0,0,0-15,0V436.39H320.07V284.29a7.5,7.5,0,0,0-7.5-7.5H199.43a7.5,7.5,0,0,0-7.5,7.5v152.1H35.2V416.51a7.5,7.5,0,0,0-15,0v19.88H7.5a7.5,7.5,0,0,0-7.5,7.5v34.35a7.5,7.5,0,0,0,7.5,7.5h497a7.5,7.5,0,0,0,7.5-7.5V443.89A7.5,7.5,0,0,0,504.5,436.39Zm-297.57-54.7h10.69a7.5,7.5,0,0,0,0-15H206.93v-74.9h98.14v144.6H206.93ZM497,470.74H15V451.39H497Z" transform="translate(0 -26.26)"/></svg>