<svg id="Capa_1" data-name="Capa 1" xmlns="http://www.w3.org/2000/svg" xmlns:xlink="http://www.w3.org/1999/xlink" viewBox="0 0 295 512"><defs><style>.cls-1{fill:url(#Degradado_sin_nombre_16);}.cls-2{fill:url(#Degradado_sin_nombre_16-2);}.cls-3{fill:url(#Degradado_sin_nombre_16-3);}.cls-4{fill:url(#Degradado_sin_nombre_16-4);}</style><linearGradient id="Degradado_sin_nombre_16" x1="256" y1="512" x2="256" gradientUnits="userSpaceOnUse"><stop offset="0" stop-color="#f24405"/><stop offset="1" stop-color="#f2b988"/></linearGradient><linearGradient id="Degradado_sin_nombre_16-2" x1="271" y1="45" x2="271" y2="30" xlink:href="#Degradado_sin_nombre_16"/><linearGradient id="Degradado_sin_nombre_16-3" x1="256" y1="482" x2="256" y2="437" xlink:href="#Degradado_sin_nombre_16"/><linearGradient id="Degradado_sin_nombre_16-4" x1="117.5" y1="45" x2="117.5" y2="30" xlink:href="#Degradado_sin_nombre_16"/></defs><title>telefono-movil-mod</title><path class="cls-1" d="M366,0H146a37.54,37.54,0,0,0-37.5,37.5v437A37.54,37.54,0,0,0,146,512H366a37.54,37.54,0,0,0,37.5-37.5V37.5A37.54,37.54,0,0,0,366,0Zm22.5,407H176a7.5,7.5,0,0,0,0,15H388.5v52.5A22.52,22.52,0,0,1,366,497H146a22.52,22.52,0,0,1-22.5-22.5V422H146a7.5,7.5,0,0,0,0-15H123.5V75h265Zm0-347h-265V37.5A22.52,22.52,0,0,1,146,15H366a22.52,22.52,0,0,1,22.5,22.5Z" transform="translate(-108.5)"/><path class="cls-2" d="M286,30H256a7.5,7.5,0,0,0,0,15h30a7.5,7.5,0,0,0,0-15Z" transform="translate(-108.5)"/><path class="cls-3" d="M256,437a22.5,22.5,0,1,0,22.5,22.5A22.52,22.52,0,0,0,256,437Zm0,30a7.5,7.5,0,1,1,7.5-7.5A7.5,7.5,0,0,1,256,467Z" transform="translate(-108.5)"/><circle class="cls-4" cx="117.5" cy="37.5" r="7.5"/></svg>